<?xml version="1.0" encoding="UTF-8"?>
<svg xmlns="http://www.w3.org/2000/svg" id="Layer_1" data-name="Layer 1" viewBox="0 0 24 24">
  <path d="m23.314,9.146c-.424-.22-.929-.188-1.318.085-.033.023-.062.05-.089.079l-.147.167c.148-.476.24-.971.24-1.476,0-1.246-.474-2.372-1.231-3.248.403-.037.847-.136,1.322-.329.867-.352,1.438-1.101,1.765-1.666.166-.29.19-.634.064-.943-.126-.311-.384-.54-.705-.632-.628-.177-1.555-.315-2.427.038-1.041.424-1.866,1.497-2.239,2.051-.491-.162-1.006-.271-1.55-.271-2.176,0-4.012,1.406-4.698,3.349l-.834-1.894c-.311-.704-.468-1.451-.468-2.219v-1.236h.5c.276,0,.5-.224.5-.5s-.224-.5-.5-.5H3.5c-.276,0-.5.224-.5.5s.224.5.5.5h.5v1.236c0,.768-.157,1.515-.468,2.219l-.895,2.032c-.386.875-.589,1.8-.624,2.752-.004-.003-.006-.006-.01-.009-.391-.272-.895-.305-1.318-.085-.423.221-.686.653-.686,1.13v9.225c0,2.481,2.019,4.5,4.5,4.5h15c2.481,0,4.5-2.019,4.5-4.5v-9.225c0-.477-.263-.909-.686-1.13Zm-2.148-7c.604-.245,1.3-.138,1.776,0l.047.112c-.247.431-.67.994-1.274,1.24-.964.392-1.743.289-2.206.146.349-.485.961-1.215,1.657-1.498Zm-4.166,1.854c2.718,0,4,2.401,4,4,0,.86-.291,1.69-.8,2.377l-.985-.942c-.712-.537-1.696-.576-2.492-.063l-1.828,1.471-1.633-1.425c-.171-.452-.261-.928-.261-1.416,0-2.206,1.794-4,4-4ZM3.553,6.891l.896-2.033c.366-.831.552-1.714.552-2.621v-1.236h5v1.236c0,.907.186,1.79.552,2.621l.896,2.034c.298.674.469,1.384.526,2.114-.419.005-.837.128-1.195.375-.016.011-1.645,1.435-1.645,1.435l-1.421-1.374c-.71-.541-1.694-.582-2.493-.074l-1.806,1.44-.415-.47v-.825c0-.909.186-1.791.553-2.622Zm.947,16.109c-1.93,0-3.5-1.57-3.5-3.5v-9.225c0-.15.112-.275.277-.275.035,0,.074.007.114.027l1.588,1.799c.177.199.479.227.687.06l2.134-1.705c.402-.257.93-.232,1.264.018l1.707,1.655c.187.182.48.189.677.017l1.922-1.682c.389-.255.899-.25,1.238-.021l1.412,1.236c-.007.032-.019.062-.019.096v8c0,1.421.675,2.675,1.706,3.5H4.5Zm18.5-3.5c0,1.93-1.57,3.5-3.5,3.5h-1c-1.93,0-3.5-1.57-3.5-3.5v-7.526c.069-.017.137-.044.195-.09l2.11-1.702c.401-.258.926-.235,1.263.013l1.731,1.661c.098.095.233.146.366.14.137-.006.265-.067.354-.169l1.588-1.799c.106-.055.203-.016.244.005.044.023.147.093.147.243v9.225Z"/>
</svg>
