<svg width="108" height="36" viewBox="0 0 115 36" fill="none" xmlns="http://www.w3.org/2000/svg"><rect x="0.81" y="0.81" width="114" height="36" rx="17.19" stroke="url(#paint0_linear_2_30)" stroke-width="1.62"></rect><g clip-path="url(#clip0_2_30)"><mask id="path-2-inside-1_2_30" fill="white"><path d="M99.7694 15.6145V16.4583C99.2846 15.7581 98.5664 15.399 97.5969 15.399C96.5734 15.399 95.6937 15.7761 94.9575 16.5122C94.2214 17.2483 93.8623 18.182 93.8623 19.3131C93.8623 20.4443 94.2214 21.3779 94.9216 22.114C95.6578 22.8502 96.5375 23.2093 97.5789 23.2093C98.5664 23.2093 99.3025 22.8322 99.7694 22.0602V23.0477C99.7694 24.4661 99.1409 25.1663 97.8662 25.1663C97.3275 25.1663 96.9146 25.0945 96.6093 24.9149C96.3041 24.7713 96.1605 24.5558 96.1605 24.3045C96.1605 24.1249 96.1964 23.9454 96.2503 23.7658L94.383 23.1913C94.2393 23.4606 94.1675 23.7479 94.1675 24.089C94.1675 24.897 94.4907 25.5433 95.155 26.0102C95.8194 26.4949 96.7171 26.7283 97.8662 26.7283C99.0153 26.7283 99.9848 26.3872 100.685 25.7229C101.385 25.0586 101.726 24.089 101.726 22.8143V15.6145H99.7694ZM99.2666 20.9111C98.8716 21.3061 98.3689 21.5036 97.7943 21.5036C97.2198 21.5036 96.735 21.3061 96.34 20.929C95.945 20.534 95.7475 19.9954 95.7475 19.3131C95.7475 18.6308 95.945 18.0922 96.34 17.6972C96.735 17.3022 97.2198 17.1047 97.7943 17.1047C98.3689 17.1047 98.8716 17.3022 99.2666 17.6972C99.6796 18.0922 99.8771 18.6308 99.8771 19.3131C99.8771 19.9954 99.6796 20.5161 99.2666 20.9111ZM93.2698 19.2593C93.2698 18.1281 92.9107 17.2124 92.2105 16.4943C91.5103 15.7581 90.6125 15.399 89.4994 15.399C88.3862 15.399 87.3987 15.7761 86.6087 16.5302C85.8366 17.2843 85.4416 18.2718 85.4416 19.4747C85.4416 20.6777 85.8187 21.6472 86.5907 22.4193C87.3807 23.1733 88.3143 23.5504 89.4096 23.5504C91.0973 23.5504 92.3182 22.7963 93.0364 21.2881L91.5821 20.4622C91.1153 21.3958 90.3971 21.8806 89.4455 21.8806C88.8709 21.8806 88.3862 21.7011 87.9912 21.3599C87.6141 21.0008 87.3807 20.534 87.3268 19.9415H93.2698V19.2593ZM87.3268 18.5052C87.4705 18.0383 87.7398 17.6613 88.0989 17.3561C88.4939 17.0508 88.9428 16.8893 89.4455 16.8893C89.9841 16.8893 90.4509 17.0329 90.7921 17.3202C91.1512 17.6074 91.3666 18.0024 91.4743 18.5052H87.3268ZM84.1309 12.4365L81.6712 19.4029L81.2762 20.7854C81.1505 20.3904 81.0248 19.9415 80.8632 19.4029L78.4034 12.4365H76.1771L80.2348 23.3349H82.3175L86.3573 12.4365H84.1309ZM72.3528 19.2593C72.3528 18.1281 71.9937 17.2124 71.2934 16.4943C70.5932 15.7581 69.6775 15.399 68.5823 15.399C67.4871 15.399 66.4816 15.7761 65.6916 16.5302C64.9196 17.2843 64.5246 18.2718 64.5246 19.4747C64.5246 20.6777 64.9016 21.6472 65.6737 22.4193C66.4457 23.1733 67.3973 23.5504 68.4925 23.5504C70.1803 23.5504 71.3832 22.7963 72.1193 21.2881L70.6471 20.4622C70.1803 21.3958 69.48 21.8806 68.5284 21.8806C67.9359 21.8806 67.4512 21.7011 67.0741 21.3599C66.6971 21.0008 66.4637 20.534 66.4098 19.9415H72.3528V19.2593ZM66.4098 18.5052C66.5534 18.0383 66.8048 17.6613 67.1818 17.3561C67.5768 17.0508 68.0078 16.8893 68.5284 16.8893C69.0491 16.8893 69.5159 17.0329 69.875 17.3202C70.2341 17.6074 70.4496 18.0024 70.5393 18.5052H66.4098ZM63.9859 15.399C63.0343 15.399 62.3162 15.8838 61.8314 16.8533V15.6145H59.8743V23.3349H61.8314V19.5286C61.8314 18.8643 62.0109 18.3077 62.3341 17.8947C62.6753 17.4458 63.1421 17.2304 63.6987 17.2304C63.9321 17.2304 64.1475 17.2663 64.345 17.3381L64.6503 15.4888C64.4528 15.4349 64.2193 15.399 63.9859 15.399ZM56.5707 15.6145V19.6004C56.5707 20.2288 56.4091 20.7315 56.068 21.1265C55.7448 21.5215 55.3318 21.719 54.7753 21.719C53.7339 21.719 53.2132 21.1265 53.2132 19.9595V15.6145H51.2562V20.4083C51.2562 21.4138 51.5075 22.1858 52.0462 22.7245C52.5848 23.2811 53.2671 23.5504 54.1109 23.5504C55.2421 23.5504 56.05 23.0836 56.5707 22.114V23.3349H58.5278V15.6145H56.5707ZM49.1914 13.3702C48.4732 12.7597 47.4857 12.4365 46.2289 12.4365H41.2734V23.3349H43.3382V19.5465H46.2289C47.4857 19.5465 48.4732 19.2233 49.1914 18.6129C49.9275 18.0024 50.3046 17.1227 50.3046 15.9915C50.3046 14.8604 49.9275 13.9806 49.1914 13.3702ZM47.7191 17.2483C47.378 17.5536 46.8573 17.6972 46.1571 17.6972H43.3382V14.2858H46.1571C46.8573 14.2858 47.378 14.4295 47.7191 14.7527C48.0782 15.0399 48.2578 15.4529 48.2578 15.9915C48.2578 16.5302 48.0782 16.9431 47.7191 17.2483Z"></path></mask><path d="M99.7694 15.6145V16.4583C99.2846 15.7581 98.5664 15.399 97.5969 15.399C96.5734 15.399 95.6937 15.7761 94.9575 16.5122C94.2214 17.2483 93.8623 18.182 93.8623 19.3131C93.8623 20.4443 94.2214 21.3779 94.9216 22.114C95.6578 22.8502 96.5375 23.2093 97.5789 23.2093C98.5664 23.2093 99.3025 22.8322 99.7694 22.0602V23.0477C99.7694 24.4661 99.1409 25.1663 97.8662 25.1663C97.3275 25.1663 96.9146 25.0945 96.6093 24.9149C96.3041 24.7713 96.1605 24.5558 96.1605 24.3045C96.1605 24.1249 96.1964 23.9454 96.2503 23.7658L94.383 23.1913C94.2393 23.4606 94.1675 23.7479 94.1675 24.089C94.1675 24.897 94.4907 25.5433 95.155 26.0102C95.8194 26.4949 96.7171 26.7283 97.8662 26.7283C99.0153 26.7283 99.9848 26.3872 100.685 25.7229C101.385 25.0586 101.726 24.089 101.726 22.8143V15.6145H99.7694ZM99.2666 20.9111C98.8716 21.3061 98.3689 21.5036 97.7943 21.5036C97.2198 21.5036 96.735 21.3061 96.34 20.929C95.945 20.534 95.7475 19.9954 95.7475 19.3131C95.7475 18.6308 95.945 18.0922 96.34 17.6972C96.735 17.3022 97.2198 17.1047 97.7943 17.1047C98.3689 17.1047 98.8716 17.3022 99.2666 17.6972C99.6796 18.0922 99.8771 18.6308 99.8771 19.3131C99.8771 19.9954 99.6796 20.5161 99.2666 20.9111ZM93.2698 19.2593C93.2698 18.1281 92.9107 17.2124 92.2105 16.4943C91.5103 15.7581 90.6125 15.399 89.4994 15.399C88.3862 15.399 87.3987 15.7761 86.6087 16.5302C85.8366 17.2843 85.4416 18.2718 85.4416 19.4747C85.4416 20.6777 85.8187 21.6472 86.5907 22.4193C87.3807 23.1733 88.3143 23.5504 89.4096 23.5504C91.0973 23.5504 92.3182 22.7963 93.0364 21.2881L91.5821 20.4622C91.1153 21.3958 90.3971 21.8806 89.4455 21.8806C88.8709 21.8806 88.3862 21.7011 87.9912 21.3599C87.6141 21.0008 87.3807 20.534 87.3268 19.9415H93.2698V19.2593ZM87.3268 18.5052C87.4705 18.0383 87.7398 17.6613 88.0989 17.3561C88.4939 17.0508 88.9428 16.8893 89.4455 16.8893C89.9841 16.8893 90.4509 17.0329 90.7921 17.3202C91.1512 17.6074 91.3666 18.0024 91.4743 18.5052H87.3268ZM84.1309 12.4365L81.6712 19.4029L81.2762 20.7854C81.1505 20.3904 81.0248 19.9415 80.8632 19.4029L78.4034 12.4365H76.1771L80.2348 23.3349H82.3175L86.3573 12.4365H84.1309ZM72.3528 19.2593C72.3528 18.1281 71.9937 17.2124 71.2934 16.4943C70.5932 15.7581 69.6775 15.399 68.5823 15.399C67.4871 15.399 66.4816 15.7761 65.6916 16.5302C64.9196 17.2843 64.5246 18.2718 64.5246 19.4747C64.5246 20.6777 64.9016 21.6472 65.6737 22.4193C66.4457 23.1733 67.3973 23.5504 68.4925 23.5504C70.1803 23.5504 71.3832 22.7963 72.1193 21.2881L70.6471 20.4622C70.1803 21.3958 69.48 21.8806 68.5284 21.8806C67.9359 21.8806 67.4512 21.7011 67.0741 21.3599C66.6971 21.0008 66.4637 20.534 66.4098 19.9415H72.3528V19.2593ZM66.4098 18.5052C66.5534 18.0383 66.8048 17.6613 67.1818 17.3561C67.5768 17.0508 68.0078 16.8893 68.5284 16.8893C69.0491 16.8893 69.5159 17.0329 69.875 17.3202C70.2341 17.6074 70.4496 18.0024 70.5393 18.5052H66.4098ZM63.9859 15.399C63.0343 15.399 62.3162 15.8838 61.8314 16.8533V15.6145H59.8743V23.3349H61.8314V19.5286C61.8314 18.8643 62.0109 18.3077 62.3341 17.8947C62.6753 17.4458 63.1421 17.2304 63.6987 17.2304C63.9321 17.2304 64.1475 17.2663 64.345 17.3381L64.6503 15.4888C64.4528 15.4349 64.2193 15.399 63.9859 15.399ZM56.5707 15.6145V19.6004C56.5707 20.2288 56.4091 20.7315 56.068 21.1265C55.7448 21.5215 55.3318 21.719 54.7753 21.719C53.7339 21.719 53.2132 21.1265 53.2132 19.9595V15.6145H51.2562V20.4083C51.2562 21.4138 51.5075 22.1858 52.0462 22.7245C52.5848 23.2811 53.2671 23.5504 54.1109 23.5504C55.2421 23.5504 56.05 23.0836 56.5707 22.114V23.3349H58.5278V15.6145H56.5707ZM49.1914 13.3702C48.4732 12.7597 47.4857 12.4365 46.2289 12.4365H41.2734V23.3349H43.3382V19.5465H46.2289C47.4857 19.5465 48.4732 19.2233 49.1914 18.6129C49.9275 18.0024 50.3046 17.1227 50.3046 15.9915C50.3046 14.8604 49.9275 13.9806 49.1914 13.3702ZM47.7191 17.2483C47.378 17.5536 46.8573 17.6972 46.1571 17.6972H43.3382V14.2858H46.1571C46.8573 14.2858 47.378 14.4295 47.7191 14.7527C48.0782 15.0399 48.2578 15.4529 48.2578 15.9915C48.2578 16.5302 48.0782 16.9431 47.7191 17.2483Z" fill="#0C7266" stroke="white" stroke-width="0.143636" mask="url(#path-2-inside-1_2_30)"></path><mask id="mask0_2_30" maskUnits="userSpaceOnUse" x="21" y="11" width="15" height="15" style="mask-type: luminance;"><path d="M35.5257 11H21.1621V25.3636H35.5257V11Z" fill="white"></path></mask><g mask="url(#mask0_2_30)"><path fill-rule="evenodd" clip-rule="evenodd" d="M28.3439 24.1068C26.6203 24.1068 25.4353 24.1068 24.5735 23.9991C23.7476 23.8914 23.3526 23.6759 23.1012 23.4245C22.8498 23.1732 22.6344 22.7782 22.5267 21.9523C22.4189 21.0905 22.4189 19.9055 22.4189 18.1818C22.4189 16.4582 22.4189 15.2732 22.5267 14.4114C22.6344 13.5855 22.8498 13.1905 23.1012 12.9391C23.3526 12.6877 23.7476 12.4723 24.5735 12.3645C25.4353 12.2568 26.6203 12.2568 28.3439 12.2568C30.0676 12.2568 31.2526 12.2568 32.1144 12.3645C32.9403 12.4723 33.3353 12.6877 33.5867 12.9391C33.838 13.1905 34.0535 13.5855 34.1612 14.4114C34.2689 15.2732 34.2689 16.4582 34.2689 18.1818C34.2689 19.9055 34.2689 21.0905 34.1612 21.9523C34.0535 22.7782 33.838 23.1732 33.5867 23.4245C33.3353 23.6759 32.9403 23.8914 32.1144 23.9991C31.2526 24.1068 30.0676 24.1068 28.3439 24.1068ZM21.1621 18.1818C21.1621 14.8064 21.1621 13.1186 22.2035 12.0414C23.2448 11 24.9326 11 28.3439 11C31.7553 11 33.4071 11 34.4844 12.0414C35.5258 13.0827 35.5257 14.7705 35.5257 18.1818C35.5257 21.5932 35.5258 23.245 34.4844 24.3223C33.443 25.3636 31.7553 25.3636 28.3439 25.3636C24.9326 25.3636 23.2807 25.3636 22.2035 24.3223C21.1621 23.2809 21.1621 21.5932 21.1621 18.1818Z" fill="#0F8A65"></path><path fill-rule="evenodd" clip-rule="evenodd" d="M28.9992 21.4045V23.0652H27.261V21.3367C26.2411 21.491 25.1715 20.9651 24.4912 19.7276C23.9026 18.6567 24.0048 16.4677 24.1422 15.1036C24.1872 14.6578 24.2134 14.3975 24.3417 14.2492C24.7606 14.4337 25.3215 14.6951 25.9115 15.0111C26.5144 15.334 27.1383 15.709 27.6694 16.1118C28.2089 16.521 28.6131 16.9296 28.8212 17.3081L28.8247 17.3145L28.8298 17.3232C28.9909 17.5971 29.2865 18.0997 29.2865 18.9576H30.2384C30.2384 17.8252 29.8353 17.1304 29.6419 16.8015C29.3473 16.269 28.8506 15.7846 28.3074 15.3632C29.2391 14.639 30.4566 14.0167 31.3147 13.6219C31.7852 13.4054 32.0205 13.2972 32.229 13.4236C32.4374 13.55 32.4658 13.8181 32.5226 14.3543C32.6817 15.8575 32.8223 18.4016 32.1484 19.6275C31.3766 21.0316 30.1538 21.6115 28.9992 21.4045Z" fill="#0F8A65"></path></g></g><defs><linearGradient id="paint0_linear_2_30" x1="124.2" y1="15.3" x2="28.3105" y2="16.2267" gradientUnits="userSpaceOnUse"><stop stop-color="#E3E3E7"></stop><stop offset="1" stop-color="white"></stop></linearGradient><clipPath id="clip0_2_30"><rect width="81.8727" height="15.8" fill="white" transform="translate(21.166 11)"></rect></clipPath></defs></svg>